<svg xmlns="http://www.w3.org/2000/svg" width="192" height="192" viewBox="0 0 192 192" role="img" aria-label="Shadow Ascent logo">
  <defs>
    <linearGradient id="a" x1="92" x2="145" y1="45" y2="146" gradientUnits="userSpaceOnUse">
      <stop offset="0" stop-color="#b46cff"/>
      <stop offset="0.48" stop-color="#8b5cf6"/>
      <stop offset="1" stop-color="#6d28d9"/>
    </linearGradient>
    <filter id="g" x="-30%" y="-30%" width="160%" height="160%">
      <feGaussianBlur stdDeviation="4" result="blur"/>
      <feColorMatrix in="blur" type="matrix" values="0 0 0 0 0.545 0 0 0 0 0.361 0 0 0 0 0.965 0 0 0 .85 0"/>
      <feMerge>
        <feMergeNode/>
        <feMergeNode in="SourceGraphic"/>
      </feMerge>
    </filter>
  </defs>
  <rect width="192" height="192" rx="42" fill="#000"/>
  <rect x="20" y="20" width="152" height="152" rx="32" fill="#050506" stroke="#11131a" stroke-width="2"/>
  <g filter="url(#g)">
    <path fill="#fff" d="M45 61h72L99 82H64c-9 0-15 5-15 13 0 7 6 12 15 12h32c25 0 39 13 39 32 0 7-2 13-6 19H54l17-21h42c8 0 13-4 13-11 0-6-5-10-15-10H80c-25 0-40-14-40-33 0-9 2-16 5-22Z"/>
    <path fill="url(#a)" d="M123 47h15l42 111h-30l-7-20h-38l-7 20H68l55-111Zm13 68-12-36-13 36h25Z"/>
    <path fill="#000" d="M79 142 143 91l-35 57 10-40-39 34Z"/>
    <path fill="#8b5cf6" d="M59 151 134 95l-42 48-33 8Z"/>
  </g>
</svg>
